name rise43.5482peak65.4966fall89.1036.mot
datacolumns 19
datarows 15
range 11.38162200000000 11.40495700000000
endheader
time	ground_force1_vx	ground_force1_vy	ground_force1_vz	ground_force1_px	ground_force1_py	ground_force1_pz	ground_force2_vx	ground_force2_vy	ground_force2_vz	ground_force2_px	ground_force2_py	ground_force2_pz	ground_torque1_x	ground_torque1_y	ground_torque1_z	ground_torque2_x	ground_torque2_y	ground_torque2_z	
11.38162200000000	10.17657300000000	702.79840899999999	43.13053000000000	0.19968400000000	0.00000000000000	0.12526000000000	0.00000000000000	0.00000000000000	0.00000000000000	0.00000000000000	0.00000000000000	0.00000000000000	0.00000000000000	14.41452400000000	0.00000000000000	0.00000000000000	0.00000000000000	0.00000000000000	
11.38328200000000	9.57171400000000	703.37213699999995	43.12978100000000	0.19848500000000	0.00000000000000	0.12521700000000	0.00000000000000	0.00000000000000	0.00000000000000	0.00000000000000	0.00000000000000	0.00000000000000	0.00000000000000	14.49720900000000	0.00000000000000	0.00000000000000	0.00000000000000	0.00000000000000	
11.38495500000000	8.95669000000000	703.99048100000005	43.13344900000000	0.19727800000000	0.00000000000000	0.12517500000000	0.00000000000000	0.00000000000000	0.00000000000000	0.00000000000000	0.00000000000000	0.00000000000000	0.00000000000000	14.58460800000000	0.00000000000000	0.00000000000000	0.00000000000000	0.00000000000000	
11.38662000000000	8.33190300000000	704.65383899999995	43.14153900000000	0.19606200000000	0.00000000000000	0.12513400000000	0.00000000000000	0.00000000000000	0.00000000000000	0.00000000000000	0.00000000000000	0.00000000000000	0.00000000000000	14.67665200000000	0.00000000000000	0.00000000000000	0.00000000000000	0.00000000000000	
11.38828800000000	7.69778400000000	705.36258499999997	43.15405900000000	0.19484100000000	0.00000000000000	0.12509400000000	0.00000000000000	0.00000000000000	0.00000000000000	0.00000000000000	0.00000000000000	0.00000000000000	0.00000000000000	14.77325800000000	0.00000000000000	0.00000000000000	0.00000000000000	0.00000000000000	
11.38995000000000	7.05479000000000	706.11706900000001	43.17102000000000	0.19361600000000	0.00000000000000	0.12505600000000	0.00000000000000	0.00000000000000	0.00000000000000	0.00000000000000	0.00000000000000	0.00000000000000	0.00000000000000	14.87434100000000	0.00000000000000	0.00000000000000	0.00000000000000	0.00000000000000	
11.39162400000000	6.40340800000000	706.91760999999997	43.19243500000000	0.19238700000000	0.00000000000000	0.12501800000000	0.00000000000000	0.00000000000000	0.00000000000000	0.00000000000000	0.00000000000000	0.00000000000000	0.00000000000000	14.97980400000000	0.00000000000000	0.00000000000000	0.00000000000000	0.00000000000000	
11.39328300000000	5.74414600000000	707.76449000000002	43.21832000000000	0.19115700000000	0.00000000000000	0.12498100000000	0.00000000000000	0.00000000000000	0.00000000000000	0.00000000000000	0.00000000000000	0.00000000000000	0.00000000000000	15.08954100000000	0.00000000000000	0.00000000000000	0.00000000000000	0.00000000000000	
11.39495000000000	5.07753700000000	708.65795800000001	43.24869400000000	0.18992800000000	0.00000000000000	0.12494500000000	0.00000000000000	0.00000000000000	0.00000000000000	0.00000000000000	0.00000000000000	0.00000000000000	0.00000000000000	15.20343900000000	0.00000000000000	0.00000000000000	0.00000000000000	0.00000000000000	
11.39661500000000	4.40413400000000	709.59821499999998	43.28357600000000	0.18870000000000	0.00000000000000	0.12490900000000	0.00000000000000	0.00000000000000	0.00000000000000	0.00000000000000	0.00000000000000	0.00000000000000	0.00000000000000	15.32137400000000	0.00000000000000	0.00000000000000	0.00000000000000	0.00000000000000	
11.39828400000000	3.72450900000000	710.58541800000000	43.32298900000000	0.18747600000000	0.00000000000000	0.12487400000000	0.00000000000000	0.00000000000000	0.00000000000000	0.00000000000000	0.00000000000000	0.00000000000000	0.00000000000000	15.44321400000000	0.00000000000000	0.00000000000000	0.00000000000000	0.00000000000000	
11.39995800000000	3.03925200000000	711.61967500000003	43.36695900000000	0.18625600000000	0.00000000000000	0.12484000000000	0.00000000000000	0.00000000000000	0.00000000000000	0.00000000000000	0.00000000000000	0.00000000000000	0.00000000000000	15.56881900000000	0.00000000000000	0.00000000000000	0.00000000000000	0.00000000000000	
11.40162100000000	2.34896500000000	712.70103600000004	43.41551000000000	0.18504300000000	0.00000000000000	0.12480600000000	0.00000000000000	0.00000000000000	0.00000000000000	0.00000000000000	0.00000000000000	0.00000000000000	0.00000000000000	15.69803900000000	0.00000000000000	0.00000000000000	0.00000000000000	0.00000000000000	
11.40328600000000	1.65426700000000	713.82949499999995	43.46867200000000	0.18383700000000	0.00000000000000	0.12477200000000	0.00000000000000	0.00000000000000	0.00000000000000	0.00000000000000	0.00000000000000	0.00000000000000	0.00000000000000	15.83071400000000	0.00000000000000	0.00000000000000	0.00000000000000	0.00000000000000	
11.40495700000000	0.95578400000000	715.00498400000004	43.52647400000000	0.18264000000000	0.00000000000000	0.12473900000000	0.00000000000000	0.00000000000000	0.00000000000000	0.00000000000000	0.00000000000000	0.00000000000000	0.00000000000000	15.96667600000000	0.00000000000000	0.00000000000000	0.00000000000000	0.00000000000000	
